<?xml version="1.0" encoding="UTF-8"?>
<svg xmlns="http://www.w3.org/2000/svg" xmlns:xlink="http://www.w3.org/1999/xlink" viewBox="0 0 16 16">
  <defs>
    <style>
      .cls-1 {
        fill: #fff;
      }

      .cls-2 {
        fill: url(#linear-gradient);
      }
    </style>
    <linearGradient id="linear-gradient" x1="0" y1="8" x2="16" y2="8" gradientUnits="userSpaceOnUse">
      <stop offset="0" stop-color="#1093ff"/>
      <stop offset=".12" stop-color="#1395f5"/>
      <stop offset=".31" stop-color="#1c9adc"/>
      <stop offset=".35" stop-color="#1e9cd7"/>
      <stop offset=".71" stop-color="#0075be"/>
      <stop offset=".99" stop-color="#005b97"/>
    </linearGradient>
  </defs>
  <g id="Layer_2" data-name="Layer 2">
    <rect class="cls-2" width="16" height="16"/>
  </g>
  <g id="Layer_1" data-name="Layer 1">
    <g>
      <path class="cls-1" d="m3.64,4.58c-.17,0-.31.14-.31.31s.14.31.31.31v-.62Zm8.72.62c.17,0,.31-.14.31-.31s-.14-.31-.31-.31v.62Zm-8.72,0h8.72v-.62H3.64v.62Z"/>
      <path class="cls-1" d="m7.07,3.64v-.31.31Zm-.62.62h-.31.31Zm-.31.62c0,.17.14.31.31.31s.31-.14.31-.31h-.62Zm3.11,0c0,.17.14.31.31.31s.31-.14.31-.31h-.62Zm.31-.62h.31-.31Zm-.62-.93h-1.87v.62h1.87v-.62Zm-1.87,0c-.25,0-.49.1-.66.27l.44.44c.06-.06.14-.09.22-.09v-.62Zm-.66.27c-.18.18-.27.41-.27.66h.62c0-.08.03-.16.09-.22l-.44-.44Zm-.27.66v.62h.62v-.62h-.62Zm3.74.62v-.62h-.62v.62h.62Zm0-.62c0-.25-.1-.49-.27-.66l-.44.44c.06.06.09.14.09.22h.62Zm-.27-.66c-.18-.18-.41-.27-.66-.27v.62c.08,0,.16.03.22.09l.44-.44Z"/>
      <path class="cls-1" d="m6.75,10.18c0,.17.14.31.31.31s.31-.14.31-.31h-.62Zm.62-3.11c0-.17-.14-.31-.31-.31s-.31.14-.31.31h.62Zm0,3.11v-3.11h-.62v3.11h.62Z"/>
      <path class="cls-1" d="m8.62,10.18c0,.17.14.31.31.31s.31-.14.31-.31h-.62Zm.62-3.11c0-.17-.14-.31-.31-.31s-.31.14-.31.31h.62Zm0,3.11v-3.11h-.62v3.11h.62Z"/>
      <path class="cls-1" d="m10.85,11.79l-.31-.03h0s.31.03.31.03Zm-.62.57v-.31s0,0,0,0v.31Zm-4.46,0v-.31h0v.31Zm-.62-.57l.31-.03h0s-.31.03-.31.03Zm-.27-6.92c-.01-.17-.16-.3-.34-.28-.17.01-.3.16-.28.34l.62-.05Zm6.85.05c.01-.17-.11-.32-.28-.34s-.32.11-.34.28l.62.05Zm-1.2,6.85c0,.08-.04.15-.1.2l.42.46c.17-.16.28-.38.3-.61l-.62-.05Zm-.1.2c-.06.05-.13.08-.21.08v.62c.23,0,.46-.09.63-.25l-.42-.46Zm-.21.08h-4.46v.62h4.46v-.62Zm-4.46,0c-.08,0-.15-.03-.21-.08l-.42.46c.17.16.4.25.63.25v-.62Zm-.21-.08c-.06-.05-.09-.13-.1-.2l-.62.05c.02.23.13.45.3.61l.42-.46Zm-.1-.2l-.58-6.9-.62.05.58,6.9.62-.05Zm5.65-6.9l-.57,6.9.62.05.57-6.9-.62-.05Z"/>
    </g>
  </g>
</svg>